<svg xmlns="http://www.w3.org/2000/svg" width="15.931" height="15.931" viewBox="0 0 15.931 15.931"><defs><style>.a{fill:#fff;}</style></defs><g transform="translate(0 15.931) rotate(-90)"><g transform="translate(0)"><path class="a" d="M14.041,11.032A6.464,6.464,0,0,0,4.9,1.89a6.339,6.339,0,0,0-.972,7.8.272.272,0,0,1-.038.324l-3.3,3.3A1.506,1.506,0,0,0,.36,15.471l.1.1a1.506,1.506,0,0,0,2.156-.23l3.291-3.291A.276.276,0,0,1,6.239,12,6.339,6.339,0,0,0,14.041,11.032ZM6.092,9.839a4.776,4.776,0,1,1,6.755,0A4.782,4.782,0,0,1,6.092,9.839Z"/><g transform="translate(5.838 2.587)"><path class="a" d="M.667,3.491a.668.668,0,0,1-.614-.927A4.2,4.2,0,0,1,5.558.332a.667.667,0,1,1-.52,1.229A2.869,2.869,0,0,0,1.282,3.083.667.667,0,0,1,.667,3.491Z" transform="translate(0 0)"/></g></g></g></svg>